<svg width="38" height="38" viewBox="0 0 38 38" fill="none" xmlns="http://www.w3.org/2000/svg">
<path d="M19.3445 0C9.04239 0 0.689937 8.28714 0.689937 18.5107C0.689937 22.0079 1.6681 25.2787 3.36682 28.069L0 38L10.3282 34.7189C13.0008 36.1851 16.0744 37.0215 19.3445 37.0215C29.6481 37.0215 38 28.7332 38 18.5107C38 8.28714 29.6481 0 19.3445 0ZM28.6208 25.5406C28.1819 26.6286 26.1971 27.6215 25.3213 27.6672C24.4465 27.7136 24.4215 28.3453 19.6519 26.2733C14.8828 24.2007 12.0135 19.1615 11.7873 18.837C11.5609 18.5136 9.93988 16.2035 10.0273 13.8787C10.1154 11.5535 11.3885 10.4565 11.8429 10.0003C12.2967 9.54334 12.8171 9.46149 13.1349 9.45632C13.5104 9.45021 13.7537 9.44512 14.0317 9.45538C14.3094 9.4659 14.7265 9.39728 15.0877 10.3578C15.4487 11.3182 16.3128 13.6788 16.4233 13.9194C16.5337 14.1602 16.6021 14.439 16.4319 14.7482C16.2613 15.058 16.1739 15.2516 15.9263 15.5186C15.6774 15.7856 15.4026 16.1159 15.1806 16.3201C14.9329 16.5461 14.6742 16.7927 14.9346 17.2759C15.1948 17.7588 16.0927 19.3418 17.4605 20.6464C19.2184 22.3234 20.7344 22.8796 21.2009 23.1331C21.6687 23.3879 21.9479 23.3596 22.238 23.0543C22.5267 22.749 23.4797 21.7187 23.8153 21.2587C24.1508 20.7974 24.4651 20.8878 24.8961 21.0612C25.3268 21.2352 27.6237 22.4655 28.0916 22.7195C28.559 22.973 28.8713 23.1037 28.9831 23.3048C29.0948 23.5066 29.0595 24.4525 28.6208 25.5406Z" fill="#45D26D"/>
</svg>
